<svg xmlns="http://www.w3.org/2000/svg" xmlns:xlink="http://www.w3.org/1999/xlink" width="13" height="13" viewBox="0 0 13 13">
    <defs>
        <path id="a" d="M50.496 7.128c1.384 0 2.506-1.097 2.506-2.45 0-1.355-1.122-2.452-2.506-2.452-1.384 0-2.506 1.097-2.506 2.451s1.122 2.451 2.506 2.451zm0 1.226c-2.076 0-3.76-1.646-3.76-3.677 0-2.03 1.684-3.677 3.76-3.677 2.076 0 3.76 1.646 3.76 3.677 0 2.03-1.684 3.677-3.76 3.677zm6.496 5.1c.031.083-.032.292-.194.34-.207.064-.483.147-.66.2-.084.027-.296-.047-.318-.108-.722-1.98-2.681-3.08-5.324-3.08-2.56 0-4.475 1.029-5.25 2.89-.048.115-.3.302-.385.276l-.617-.19c-.182-.056-.268-.265-.238-.346.924-2.49 3.368-3.856 6.49-3.856 3.127 0 5.576 1.375 6.496 3.873z"/>
    </defs>
    <use fill="#FFF" fill-rule="nonzero" transform="translate(-44 -1)" xlink:href="#a"/>
</svg>
